<mxfile host="Electron" agent="Mozilla/5.0 (Macintosh; Intel Mac OS X 10_15_7) AppleWebKit/537.36 (KHTML, like Gecko) draw.io/24.7.17 Chrome/128.0.6613.36 Electron/32.0.1 Safari/537.36" version="24.7.17">
  <diagram id="R2lEEEUBdFMjLlhIrx00" name="Page-1">
    <mxGraphModel dx="984" dy="717" grid="1" gridSize="10" guides="1" tooltips="1" connect="1" arrows="1" fold="1" page="1" pageScale="1" pageWidth="827" pageHeight="583" math="0" shadow="0" extFonts="Permanent Marker^https://fonts.googleapis.com/css?family=Permanent+Marker">
      <root>
        <mxCell id="0" />
        <mxCell id="1" parent="0" />
        <mxCell id="LKEGEs5__53qbC8k0yGo-3" value="English term" style="rounded=1;arcSize=10;whiteSpace=wrap;html=1;align=center;fontSize=36;strokeWidth=2;" vertex="1" parent="1">
          <mxGeometry x="580" y="280" width="190" height="100" as="geometry" />
        </mxCell>
        <mxCell id="LKEGEs5__53qbC8k0yGo-5" value="Gaelic term" style="rounded=1;arcSize=10;whiteSpace=wrap;html=1;align=center;fontSize=36;strokeWidth=2;" vertex="1" parent="1">
          <mxGeometry x="60" y="260" width="200" height="80" as="geometry" />
        </mxCell>
        <mxCell id="LKEGEs5__53qbC8k0yGo-18" value="authority" style="rounded=1;arcSize=10;whiteSpace=wrap;html=1;align=center;fontSize=36;strokeWidth=2;" vertex="1" parent="1">
          <mxGeometry x="314" y="440" width="200" height="65" as="geometry" />
        </mxCell>
        <mxCell id="LKEGEs5__53qbC8k0yGo-29" style="edgeStyle=orthogonalEdgeStyle;rounded=0;orthogonalLoop=1;jettySize=auto;html=1;endArrow=none;endFill=0;strokeWidth=2;" edge="1" parent="1" source="LKEGEs5__53qbC8k0yGo-23">
          <mxGeometry relative="1" as="geometry">
            <mxPoint x="414" y="440" as="targetPoint" />
          </mxGeometry>
        </mxCell>
        <mxCell id="LKEGEs5__53qbC8k0yGo-30" style="edgeStyle=orthogonalEdgeStyle;rounded=0;orthogonalLoop=1;jettySize=auto;html=1;entryX=0.5;entryY=0;entryDx=0;entryDy=0;strokeWidth=2;startArrow=none;startFill=0;endArrow=none;endFill=0;" edge="1" parent="1" source="LKEGEs5__53qbC8k0yGo-23" target="LKEGEs5__53qbC8k0yGo-5">
          <mxGeometry relative="1" as="geometry" />
        </mxCell>
        <mxCell id="LKEGEs5__53qbC8k0yGo-31" style="edgeStyle=orthogonalEdgeStyle;rounded=0;orthogonalLoop=1;jettySize=auto;html=1;entryX=0.5;entryY=0;entryDx=0;entryDy=0;strokeWidth=2;endArrow=none;endFill=0;" edge="1" parent="1" source="LKEGEs5__53qbC8k0yGo-23" target="LKEGEs5__53qbC8k0yGo-3">
          <mxGeometry relative="1" as="geometry" />
        </mxCell>
        <mxCell id="LKEGEs5__53qbC8k0yGo-23" value="equivalence" style="rounded=1;arcSize=10;whiteSpace=wrap;html=1;align=center;fontSize=36;strokeWidth=2;" vertex="1" parent="1">
          <mxGeometry x="289" y="80" width="250" height="60" as="geometry" />
        </mxCell>
      </root>
    </mxGraphModel>
  </diagram>
</mxfile>
